<?xml version="1.0" standalone="no"?>
<!DOCTYPE svg PUBLIC "-//W3C//DTD SVG 20010904//EN"
 "http://www.w3.org/TR/2001/REC-SVG-20010904/DTD/svg10.dtd">
<svg version="1.0" xmlns="http://www.w3.org/2000/svg"
 width="804.000000pt" height="257.000000pt" viewBox="0 0 804.000000 257.000000"
 preserveAspectRatio="xMidYMid meet">
<metadata>
Created by potrace 1.16, written by Peter Selinger 2001-2019
</metadata>
<g transform="translate(0.000000,257.000000) scale(0.100000,-0.100000)"
fill="#000000" stroke="none">
<path d="M365 1988 c-6 -13 -19 -23 -30 -23 -22 0 -105 -103 -105 -130 0 -8
-4 -15 -8 -15 -12 0 -79 -156 -97 -227 -44 -166 -54 -327 -30 -486 56 -374
300 -706 641 -876 77 -38 185 -74 289 -97 108 -23 340 -23 450 0 313 68 560
235 753 511 27 40 63 118 58 130 -3 10 0 12 11 8 12 -5 15 -2 10 10 -3 8 -1
17 5 19 6 2 10 16 11 31 0 15 3 24 8 22 4 -3 4 7 -1 22 -15 48 -35 83 -48 83
-7 0 -15 7 -18 15 -8 19 -24 19 -24 0 0 -8 -4 -15 -10 -15 -5 0 -10 6 -10 13
0 7 -7 22 -15 33 -15 18 -16 18 -40 -11 l-26 -30 6 27 c4 15 2 35 -4 45 -9 14
-10 11 -6 -17 4 -29 3 -31 -5 -15 -9 18 -10 18 -6 -4 3 -14 1 -30 -4 -37 -6
-6 -30 -51 -55 -99 -66 -128 -180 -263 -270 -321 -17 -10 -32 -21 -35 -25 -3
-3 -27 -18 -53 -33 -310 -171 -667 -159 -963 32 -187 121 -341 352 -385 577
-20 102 -17 304 6 385 10 36 19 77 19 92 1 14 4 24 7 22 6 -3 49 89 49 105 0
5 6 11 13 14 8 3 22 -13 36 -44 13 -27 28 -46 34 -42 6 4 8 0 4 -10 -3 -9 -2
-19 3 -22 8 -5 130 -208 139 -230 2 -5 25 -46 51 -90 27 -44 59 -99 72 -122
55 -100 183 -313 188 -313 6 0 148 241 184 312 l20 38 -24 42 c-12 24 -33 57
-44 73 -12 17 -48 74 -80 128 -32 53 -62 95 -67 92 -5 -4 -6 1 -3 9 3 9 -4 28
-16 43 -20 25 -22 25 -16 6 4 -13 3 -23 -2 -23 -15 0 -21 37 -9 49 7 7 7 11 1
11 -6 0 -16 -6 -23 -12 -10 -11 -11 -9 -5 6 5 14 4 17 -5 12 -8 -6 -10 -1 -5
18 5 23 4 25 -20 20 -22 -4 -30 1 -44 26 -14 25 -23 30 -55 30 -21 0 -48 5
-60 11 l-21 12 24 9 24 9 -24 16 c-21 15 -24 15 -35 0 -11 -15 -14 -15 -36 0
-13 9 -36 27 -51 41 -25 23 -28 24 -28 7 0 -16 -2 -16 -17 -4 -32 25 -63 40
-63 29 0 -16 -24 -12 -41 8 -9 9 -26 24 -38 32 -60 40 -58 36 -28 67 15 16 24
32 20 36 -11 12 -18 8 -28 -15z"/>
<path d="M3080 1427 c0 -7 7 -22 15 -34 10 -14 12 -24 5 -28 -5 -3 -10 -1 -10
5 0 6 -4 8 -10 5 -5 -3 -10 -11 -10 -16 0 -6 5 -7 10 -4 6 3 10 1 10 -5 0 -6
4 -9 9 -5 6 3 6 -6 1 -25 -6 -19 -5 -32 2 -36 7 -5 8 -2 3 6 -5 8 -4 11 3 6 6
-4 9 -13 5 -21 -3 -9 3 -27 13 -43 10 -15 18 -31 19 -37 0 -5 22 -65 49 -132
l50 -123 92 0 92 0 37 87 c21 48 38 92 39 97 1 6 12 30 23 54 12 23 17 40 12
37 -5 -4 -6 1 -3 9 3 9 9 16 13 16 14 0 34 84 22 88 -6 2 -11 11 -11 19 0 9
-6 13 -15 9 -10 -3 -15 1 -16 12 0 14 -2 14 -6 2 -6 -16 -23 -30 -36 -30 -5 0
-6 4 -3 9 4 5 3 17 0 26 -5 13 -10 10 -25 -15 -11 -17 -24 -28 -29 -25 -6 3
-11 0 -12 -7 0 -7 -2 -18 -2 -24 -1 -6 -8 -21 -17 -35 -8 -13 -23 -41 -33 -61
-9 -21 -21 -38 -25 -38 -4 0 -20 30 -35 68 -25 63 -105 210 -91 167 4 -11 7
-24 8 -29 1 -5 -20 -8 -48 -7 -51 3 -74 19 -75 54 0 19 -20 24 -20 4z"/>
<path d="M1417 1393 c-11 -10 -8 -25 3 -18 6 3 7 -1 4 -9 -3 -9 -13 -16 -21
-16 -9 0 -13 -6 -9 -15 3 -8 1 -14 -5 -12 -9 2 -104 -148 -166 -260 -10 -18
-47 -81 -83 -140 -36 -60 -74 -124 -84 -144 l-19 -36 35 -55 c20 -30 39 -64
42 -75 14 -44 27 -46 151 -14 64 16 118 31 120 33 7 7 225 388 225 393 0 3 16
31 36 63 20 31 37 66 38 78 0 12 6 22 11 21 6 -1 9 10 7 26 -1 15 2 27 8 27 5
0 10 12 10 27 0 26 -1 26 -15 7 -13 -17 -14 -17 -15 -1 0 22 -37 23 -62 1 -16
-16 -18 -16 -24 0 -3 9 -13 16 -20 16 -8 0 -17 7 -20 15 -3 8 -21 19 -39 25
-18 6 -36 17 -39 25 -3 8 -11 15 -17 15 -7 0 -20 7 -29 15 -9 8 -20 12 -23 8z"/>
<path d="M3802 1369 c0 -18 -10 -45 -21 -60 -26 -35 -28 -106 -5 -172 51 -149
246 -238 424 -193 68 17 155 64 155 83 0 7 -19 32 -43 58 l-42 46 -35 -27
c-32 -24 -43 -26 -115 -25 -94 2 -136 18 -168 67 -39 60 -45 59 210 59 l233 0
0 49 c0 30 -6 56 -16 67 -17 20 -39 25 -39 10 0 -6 -15 -7 -32 -5 -24 4 -39 0
-54 -14 -18 -18 -34 -19 -170 -18 -155 1 -184 8 -184 47 0 24 -10 29 -31 16
-16 -10 -21 -9 -29 3 -8 12 -10 9 -10 -13 0 -16 -4 -26 -9 -23 -5 3 -7 15 -4
25 3 11 1 27 -4 36 -8 13 -10 10 -11 -16z"/>
<path d="M4557 1292 c-13 -36 -17 -82 -17 -199 l0 -153 90 0 90 0 0 159 c0
165 -9 214 -41 232 -16 8 -19 6 -19 -11 0 -16 -4 -19 -17 -12 -10 5 -24 7 -32
4 -8 -2 -19 2 -26 11 -10 13 -14 9 -28 -31z"/>
<path d="M5021 1312 c-1 -13 -4 -21 -8 -19 -5 3 -7 -75 -5 -174 l3 -179 84 0
85 0 0 123 c0 146 -10 241 -21 212 -6 -17 -8 -15 -8 10 -1 22 -4 26 -13 17 -7
-7 -31 -12 -55 -12 -36 0 -45 4 -53 23 l-9 22 0 -23z"/>
<path d="M5339 1278 c-1 -43 -3 -48 -10 -28 -6 18 -8 4 -5 -45 2 -39 10 -84
19 -102 25 -47 96 -118 142 -141 89 -44 214 -37 292 19 l42 29 3 -32 3 -33 83
-3 82 -3 -1 113 c0 107 -14 235 -19 178 -1 -23 -3 -22 -15 10 -10 25 -14 29
-15 15 -1 -11 -4 -15 -6 -9 -2 6 -18 8 -35 6 -24 -4 -31 0 -36 17 -9 33 -19
25 -33 -26 -32 -117 -108 -185 -188 -168 -20 5 -54 8 -74 9 -21 0 -35 2 -32 5
2 3 -10 10 -28 15 -39 13 -85 77 -86 120 0 17 -6 32 -11 34 -6 2 -11 10 -11
18 0 8 -3 13 -7 13 -21 -3 -33 2 -33 15 0 8 -4 18 -10 21 -6 4 -10 -14 -11
-47z"/>
<path d="M6278 1249 c-4 -11 -19 -15 -56 -13 -62 2 -62 3 -62 -168 l0 -128 90
0 90 0 0 148 c0 81 -5 154 -10 162 -8 12 -10 9 -10 -12 0 -16 -4 -28 -8 -28
-5 0 -13 12 -18 28 -7 20 -11 23 -16 11z"/>
<path d="M6606 1229 c-16 -23 -18 -23 -27 -6 -10 18 -11 18 -26 0 -8 -10 -12
-12 -8 -5 3 6 2 12 -3 12 -14 0 -22 -63 -22 -182 l0 -108 90 0 90 0 0 63 c0
96 -12 217 -21 212 -4 -3 -10 1 -12 7 -4 9 -6 8 -6 -2 -1 -11 -7 -8 -20 9
l-18 24 -17 -24z"/>
<path d="M6931 1220 c-3 -32 -4 -33 -10 -10 -11 34 -24 -101 -19 -195 l3 -70
80 0 80 0 3 60 c2 33 1 92 -3 132 l-7 71 -41 4 c-30 3 -46 -1 -58 -13 -17 -17
-18 -16 -22 19 l-4 37 -2 -35z"/>
<path d="M7425 1229 c-4 -12 -2 -26 4 -32 14 -14 14 -30 1 -22 -5 3 -10 1 -10
-4 0 -6 5 -11 11 -11 5 0 8 -4 5 -9 -4 -5 -3 -17 0 -26 6 -13 9 -14 16 -3 8
10 9 9 5 -4 -3 -9 7 -51 24 -93 31 -83 35 -111 16 -136 -31 -41 -117 -53 -163
-23 -13 9 -26 15 -28 13 -10 -12 -56 -106 -56 -115 0 -15 50 -39 113 -55 91
-23 211 22 257 96 33 54 129 296 123 311 -3 8 -2 14 3 12 10 -3 14 5 14 27 0
10 -10 15 -28 15 -18 0 -31 7 -37 21 -12 26 -29 27 -32 2 -2 -15 -1 -15 6 2 7
13 10 15 10 5 1 -24 -12 -36 -37 -34 -18 1 -21 -3 -16 -18 11 -37 -21 -13 -43
32 -13 25 -23 39 -23 32 0 -7 7 -27 16 -43 8 -17 13 -33 10 -37 -3 -3 -6 -1
-6 4 0 16 -40 55 -51 49 -13 -9 -11 2 7 33 9 15 10 20 3 11 -8 -9 -20 -14 -26
-12 -8 3 -13 -4 -13 -16 0 -14 -6 -21 -18 -21 -26 0 -54 33 -46 54 3 9 4 16 1
16 -3 0 -9 -9 -12 -21z"/>
</g>
</svg>
